<svg width="308" height="48" viewBox="0 0 308 48" fill="none" xmlns="http://www.w3.org/2000/svg">
<g clip-path="url(#clip0_704_110)">
<path d="M6.79626 2.53674H41.2033C43.5633 2.53674 45.4632 4.43665 45.4632 6.79663V41.2037C45.4632 43.5637 43.5633 45.4636 41.2033 45.4636H6.79626C4.43629 45.4636 2.53638 43.5637 2.53638 41.2037V6.79663C2.53638 4.43665 4.43629 2.53674 6.79626 2.53674Z" fill="#2E7AF4"/>
<path d="M6.79639 2C4.14842 2 2 4.14842 2 6.79639V41.2036C2 43.8516 4.14842 46 6.79639 46H41.2036C43.8516 46 46 43.8516 46 41.2036V6.79639C46 4.14842 43.8516 2 41.2036 2H6.79639ZM6.79639 3.07362H41.2036C43.2756 3.07362 44.9264 4.7244 44.9264 6.79639V41.2036C44.9264 43.2756 43.2756 44.927 41.2036 44.927H6.79639C4.7244 44.927 3.07303 43.2756 3.07303 41.2036V6.79639C3.07303 4.7244 4.7244 3.07362 6.79639 3.07362Z" fill="#2E7AF4"/>
<path d="M26.1388 12.928C25.9683 12.9268 24.7109 14.3146 24.7103 14.5242C26.2067 15.1764 28.1213 14.3528 29.7196 14.0339C32.6771 13.444 34.8352 13.1646 33.2569 17.1634C32.4351 19.2047 31.4996 20.3372 30.441 21.3969C29.8721 21.9664 28.6923 22.4796 27.6749 22.8064C26.6574 23.1333 25.8027 23.2985 25.8027 23.2985C25.6364 23.3297 23.8446 23.619 23.8672 23.8238C24.3617 29.3268 22.1577 34.9798 20.9504 37.8044C20.9504 37.8044 33.6721 37.7535 35.2805 37.7152C34.9211 34.0417 24.7118 31.8389 24.8435 24.7028C25.0676 24.6564 26.9515 24.4327 27.8314 24.15C28.8813 23.8127 30.0956 23.3337 30.8323 22.5962C32.0587 21.3685 33.1622 18.9995 33.9988 16.9212C34.8354 14.8429 34.7077 12.2166 34.7077 12.2166C34.769 10.9734 27.396 12.7777 26.1388 12.928Z" fill="white"/>
<path d="M13.2331 12.7959C13.4893 14.1625 13.7811 14.8429 14.6177 16.9212C15.4543 18.9995 16.5578 21.3685 17.7842 22.5962C18.5209 23.3337 19.7352 23.8127 20.7852 24.15C21.6619 24.4317 22.1742 24.5247 22.4015 24.5718C23.1264 33.0225 14.0229 33.6214 13.2581 37.7767L19.9752 37.7529C19.9752 37.7529 23.4852 31.301 23.0727 24.3424C23.0991 24.1361 22.9846 23.3314 22.8169 23.2984C22.8169 23.2984 21.9591 23.1332 20.9417 22.8064C19.9242 22.4795 18.7444 21.9664 18.1755 21.3969C17.1169 20.3371 15.6307 17.5455 14.809 15.5042C13.1971 12.0131 15.3798 11.8638 17.8892 12.0949C20.4532 12.3311 23.386 12.9829 25.5813 12.6199C25.5813 12.6199 27.0245 10.8151 26.8552 10.8143C24.8846 10.9064 12.9125 9.2838 13.2331 12.7959Z" fill="white"/>
<path d="M24.2965 16.2959C22.0315 16.389 22.4392 22.194 22.4587 24.2831C22.4593 24.4926 22.5983 24.6617 22.7688 24.6605C22.9381 24.6596 23.0751 24.4912 23.0758 24.2831C22.6472 14.9911 25.438 14.6142 25.541 22.389C25.5416 22.5985 25.6805 22.7676 25.851 22.7663C26.0203 22.7654 26.1573 22.597 26.158 22.389C25.8364 20.6903 26.2841 16.3798 24.2965 16.2959Z" fill="white"/>
<path d="M24.3097 18.188C24.097 18.188 23.9634 20.2074 23.9634 20.4689C23.9634 20.4689 23.698 23.6712 23.9245 24.2831C24.1509 24.8951 24.5053 25.3334 24.5053 25.3334L24.9343 24.3685C25.0207 24.1741 26.2361 24.5447 26.2361 24.2831C26.2361 24.0216 26.0633 23.2718 25.8509 23.2604C25.8509 23.2604 25.3686 23.399 25.106 23.152C24.4248 22.5117 24.6206 21.6383 24.5522 20.4949C24.5444 20.3643 24.5225 18.188 24.3097 18.188Z" fill="white"/>
</g>
<path d="M63.48 34.42C69.72 34.42 72.78 31.3 72.78 27.64C72.78 19.9 60.87 22.3 60.87 19.09C60.87 18.04 61.77 17.2 64.26 17.2C66.09 17.2 68.07 17.74 70.08 18.82L71.91 14.41C69.84 13.21 67.02 12.58 64.29 12.58C58.05 12.58 54.99 15.64 54.99 19.39C54.99 27.19 66.93 24.76 66.93 28.09C66.93 29.11 65.97 29.8 63.51 29.8C61.08 29.8 58.44 28.96 56.58 27.73L54.63 32.11C56.61 33.49 60.03 34.42 63.48 34.42ZM85.9938 34.42C89.8638 34.42 92.9838 33.01 95.0238 30.46L91.2438 27.04C89.9238 28.63 88.3038 29.5 86.2938 29.5C82.8438 29.5 80.4438 27.1 80.4438 23.5C80.4438 19.9 82.8438 17.5 86.2938 17.5C88.3038 17.5 89.9238 18.37 91.2438 19.96L95.0238 16.54C92.9838 13.99 89.8638 12.58 85.9938 12.58C79.3338 12.58 74.4438 17.11 74.4438 23.5C74.4438 29.89 79.3338 34.42 85.9938 34.42ZM111.712 13V20.89H103.612V13H97.6723V34H103.612V25.81H111.712V34H117.652V13H111.712ZM132.432 34.42C139.152 34.42 144.102 29.8 144.102 23.5C144.102 17.2 139.152 12.58 132.432 12.58C125.712 12.58 120.762 17.2 120.762 23.5C120.762 29.8 125.712 34.42 132.432 34.42ZM132.432 29.5C129.252 29.5 126.762 27.13 126.762 23.5C126.762 19.87 129.252 17.5 132.432 17.5C135.612 17.5 138.102 19.87 138.102 23.5C138.102 27.13 135.612 29.5 132.432 29.5ZM157.803 34.42C164.523 34.42 169.473 29.8 169.473 23.5C169.473 17.2 164.523 12.58 157.803 12.58C151.083 12.58 146.133 17.2 146.133 23.5C146.133 29.8 151.083 34.42 157.803 34.42ZM157.803 29.5C154.623 29.5 152.133 27.13 152.133 23.5C152.133 19.87 154.623 17.5 157.803 17.5C160.983 17.5 163.473 19.87 163.473 23.5C163.473 27.13 160.983 29.5 157.803 29.5ZM172.584 34H188.544V29.29H178.524V13H172.584V34ZM196.775 29.41V25.57H206.105V21.13H196.775V17.59H207.365V13H190.895V34H207.755V29.41H196.775ZM224.041 34H230.401L225.871 27.4C228.481 26.14 229.981 23.86 229.981 20.77C229.981 15.97 226.381 13 220.651 13H211.051V34H216.991V28.42H220.231L224.041 34ZM223.981 20.77C223.981 22.69 222.751 23.83 220.291 23.83H216.991V17.68H220.291C222.751 17.68 223.981 18.82 223.981 20.77ZM251.079 13H243.549V34H245.079V27.13H251.079C256.359 27.13 259.539 24.49 259.539 20.08C259.539 15.64 256.359 13 251.079 13ZM251.079 25.75H245.079V14.38H251.079C255.579 14.38 257.979 16.45 257.979 20.08C257.979 23.68 255.579 25.75 251.079 25.75ZM281.021 34L275.771 26.65C278.891 25.72 280.691 23.41 280.691 20.08C280.691 15.64 277.511 13 272.231 13H264.701V34H266.231V27.13H272.231C272.951 27.13 273.611 27.07 274.271 26.98L279.281 34H281.021ZM266.231 25.78V14.38H272.231C276.731 14.38 279.131 16.45 279.131 20.08C279.131 23.68 276.731 25.78 272.231 25.78H266.231ZM295.203 34.15C301.443 34.15 306.123 29.62 306.123 23.5C306.123 17.38 301.443 12.85 295.203 12.85C288.933 12.85 284.283 17.41 284.283 23.5C284.283 29.59 288.933 34.15 295.203 34.15ZM295.203 32.74C289.833 32.74 285.813 28.81 285.813 23.5C285.813 18.19 289.833 14.26 295.203 14.26C300.543 14.26 304.563 18.19 304.563 23.5C304.563 28.81 300.543 32.74 295.203 32.74Z" fill="#2E7AF4"/>
<defs>
<clipPath id="clip0_704_110">
<rect width="48" height="48" fill="white"/>
</clipPath>
</defs>
</svg>
